# xmcd
#
# Track frame offsets:
#	150
#	14045
#	29083
#	46701
#	65828
#	80733
#	103428
#	118719
#	137682
#	152712
#	174276
#	189882
#	207628
#	223180
#	241298
#	257224
#	273337
#	293673
#	310954
#	327054
#
# Disc length: 4652 seconds
#
# Revision: 4
# Processed by: cddbd v1.5.1PL2 Copyright (c) Steve Scherf et al.
# Submitted via: AudioConverter v4.05 Copyright (c) Dennis Rebentrost
#
DISCID=34122a14
DTITLE=??????? - ????????????????????????????????
DYEAR=1900
DGENRE=Rock
TTITLE0=????
TTITLE1=??????????
TTITLE2=??????
TTITLE3=???????
TTITLE4=?????????????
TTITLE5=?????????????????
TTITLE6=??
TTITLE7=?????????
TTITLE8=????????
TTITLE9=???
TTITLE10=??????????
TTITLE11=?????????????
TTITLE12=????
TTITLE13=???????????
TTITLE14=??????????????
TTITLE15=?????????????
TTITLE16=????????
TTITLE17=???????????????????????
TTITLE18=??????????????????
TTITLE19=??????
EXTD=ID3G:   0
EXTT0=
EXTT1=
EXTT2=
EXTT3=
EXTT4=
EXTT5=
EXTT6=
EXTT7=
EXTT8=
EXTT9=
EXTT10=
EXTT11=
EXTT12=
EXTT13=
EXTT14=
EXTT15=
EXTT16=
EXTT17=
EXTT18=
EXTT19=
PLAYORDER=
